G04 DipTrace 3.0.0.1*
G04 Bottom.gbr*
%MOIN*%
G04 #@! TF.FileFunction,Copper,L2,Bot*
G04 #@! TF.Part,Single*
G04 #@! TA.AperFunction,Conductor*
%ADD14C,0.03937*%
G04 #@! TA.AperFunction,ComponentPad*
%ADD15C,0.062992*%
%ADD16R,0.062992X0.062992*%
%ADD17R,0.059055X0.059055*%
%ADD18C,0.059055*%
%ADD19C,0.05*%
%ADD20R,0.05X0.05*%
%ADD22R,0.07874X0.07874*%
%ADD23C,0.07874*%
%ADD24C,0.05*%
%ADD26R,0.09X0.09*%
%ADD27C,0.09*%
%ADD28R,0.074803X0.074803*%
%ADD29C,0.074803*%
%FSLAX26Y26*%
G04*
G70*
G90*
G75*
G01*
G04 Bottom*
%LPD*%
X585039Y1051181D2*
D14*
Y857874D1*
X646457Y796457D1*
X914990D1*
X963021Y748425D1*
X585039Y1148425D2*
Y1264961D1*
X669685Y1349606D1*
X961840D1*
X963021Y1348425D1*
X1563021Y948425D2*
X1899606D1*
X1917717Y966535D1*
Y1063780D1*
X1916535Y1064961D1*
X1563021Y1148425D2*
Y1162992D1*
X1693307D1*
X1751575Y1221260D1*
X2124803D1*
X2184252Y1161811D1*
Y943307D1*
Y1050000D1*
X2175591Y1058661D1*
X1916535Y1462598D2*
X2169291D1*
X2175591Y1456299D1*
X2494882D1*
Y1079528D1*
Y1440551D1*
X2509449Y1455118D1*
X2628346D1*
Y1462205D1*
X2828346D2*
X2985039D1*
Y1006299D1*
X2972835D1*
X3192520Y1464567D2*
Y1462205D1*
X2985039D1*
X3192520Y1464567D2*
X3364567D1*
X3450787Y1378346D1*
Y1223228D1*
X3443307Y1215748D1*
X3192520Y1164567D2*
Y980315D1*
X3201575Y971260D1*
X1917717Y568898D2*
X2161024D1*
X2184252Y545669D1*
X2494882D1*
Y979528D1*
Y540945D1*
X2639764D1*
X2728346Y629528D1*
Y859858D1*
Y1006299D1*
Y1462205D1*
X2872835Y1006299D2*
X2728346D1*
X3201575Y871260D2*
X2739748D1*
X2728346Y859858D1*
X3443307Y1118504D2*
Y954724D1*
X3359843Y871260D1*
X3201575D1*
D15*
X2494882Y979528D3*
D16*
Y1079528D3*
D15*
X2872835Y1006299D3*
D16*
X2972835D3*
D17*
X1916535Y1462598D3*
D18*
Y1064961D3*
D17*
X1917717Y966535D3*
D18*
Y568898D3*
D17*
X2175591Y1456299D3*
D18*
Y1058661D3*
D17*
X2184252Y943307D3*
D18*
Y545669D3*
D19*
X3201575Y971260D3*
D20*
Y871260D3*
D22*
X585039Y1051181D3*
D23*
Y1148425D3*
D19*
X3192520Y1464567D3*
D24*
Y1164567D3*
D26*
X963021Y1348425D3*
D27*
Y1148425D3*
Y948425D3*
Y748425D3*
X1563021D3*
Y948425D3*
Y1148425D3*
Y1348425D3*
D28*
X2628346Y1462205D3*
D29*
X2728346D3*
X2828346D3*
D22*
X3443307Y1118504D3*
D23*
Y1215748D3*
M02*
