G04 DipTrace 3.0.0.1*
G04 Plated_Through.gbr*
%MOIN*%
G04 #@! TF.FileFunction,Plated,1,2,PTH,Drill*
G04 #@! TF.Part,Single*
G04 Drill Symbols*
G04 D=0.019685 - Cross*
G04 D=0.021995 - X*
G04 D=0.028005 - Y*
G04 D=0.035433 - T*
G04 D=0.03937 - V*
G04 D=0.043307 - Clock*
%ADD10C,0.007874*%
%FSLAX26Y26*%
G04*
G70*
G90*
G75*
G01*
X2471260Y1003150D2*
D10*
X2494882Y979528D1*
X2518504Y1003150D1*
X2471260Y1103150D2*
X2494882Y1079528D1*
X2518504Y1103150D1*
X2849213Y1029921D2*
X2872835Y1006299D1*
X2896457Y1029921D1*
X2949213D2*
X2972835Y1006299D1*
X2996457Y1029921D1*
X1892913Y1462598D2*
X1940157D1*
X1916535D2*
Y1438976D1*
X1892913Y1064961D2*
X1940157D1*
X1916535D2*
Y1041339D1*
X1894094Y966535D2*
X1941339D1*
X1917717D2*
Y942913D1*
X1894094Y568898D2*
X1941339D1*
X1917717D2*
Y545276D1*
X2151969Y1456299D2*
X2199213D1*
X2175591D2*
Y1432677D1*
X2151969Y1058661D2*
X2199213D1*
X2175591D2*
Y1035039D1*
X2160630Y943307D2*
X2207874D1*
X2184252D2*
Y919685D1*
X2160630Y545669D2*
X2207874D1*
X2184252D2*
Y522047D1*
X3177953Y994882D2*
X3201575Y971260D1*
X3225197Y994882D1*
X3201575Y971260D2*
Y947638D1*
X3177953Y894882D2*
X3201575Y871260D1*
X3225197Y894882D1*
X3201575Y871260D2*
Y847638D1*
X585039Y1074803D2*
Y1027559D1*
X561417Y1051181D2*
X608661D1*
X585039Y1172047D2*
Y1124803D1*
X561417Y1148425D2*
X608661D1*
X3168898Y1488189D2*
X3216142Y1440945D1*
Y1488189D2*
X3168898Y1440945D1*
Y1188189D2*
X3216142Y1140945D1*
Y1188189D2*
X3168898Y1140945D1*
X939399Y1348425D2*
X986643D1*
X963021D2*
Y1324803D1*
X939399Y1148425D2*
X986643D1*
X963021D2*
Y1124803D1*
X939399Y948425D2*
X986643D1*
X963021D2*
Y924803D1*
X939399Y748425D2*
X986643D1*
X963021D2*
Y724803D1*
X1539399Y748425D2*
X1586643D1*
X1563021D2*
Y724803D1*
X1539399Y948425D2*
X1586643D1*
X1563021D2*
Y924803D1*
X1539399Y1148425D2*
X1586643D1*
X1563021D2*
Y1124803D1*
X1539399Y1348425D2*
X1586643D1*
X1563021D2*
Y1324803D1*
X2628346Y1485827D2*
Y1462205D1*
X2651969D1*
X2728346Y1485827D2*
Y1462205D1*
X2751969D1*
X2828346Y1485827D2*
Y1462205D1*
X2851969D1*
X3443307Y1142126D2*
Y1094882D1*
X3419685Y1118504D2*
X3466929D1*
X3443307Y1239370D2*
Y1192126D1*
X3419685Y1215748D2*
X3466929D1*
M02*
