G04 DipTrace 3.0.0.1*
G04 Plated_Through.gbr*
%MOIN*%
G04 #@! TF.FileFunction,Plated,1,2,PTH,Drill*
G04 #@! TF.Part,Single*
G04 Drill Symbols*
G04 D=0.019134 - Cross*
G04 D=0.021995 - X*
G04 D=0.027559 - Y*
G04 D=0.035433 - T*
G04 D=0.043307 - V*
%ADD10C,0.007874*%
%FSLAX26Y26*%
G04*
G70*
G90*
G75*
G01*
X2268898Y701575D2*
D10*
X2316142D1*
X2292520D2*
Y677953D1*
X2368898Y701575D2*
X2416142D1*
X2392520D2*
Y677953D1*
X2468898Y701575D2*
X2516142D1*
X2492520D2*
Y677953D1*
X2568898Y701575D2*
X2616142D1*
X2592520D2*
Y677953D1*
X2668898Y701575D2*
X2716142D1*
X2692520D2*
Y677953D1*
X2668898Y1301575D2*
X2716142D1*
X2692520D2*
Y1277953D1*
X2568898Y1301575D2*
X2616142D1*
X2592520D2*
Y1277953D1*
X2468898Y1301575D2*
X2516142D1*
X2492520D2*
Y1277953D1*
X2368898Y1301575D2*
X2416142D1*
X2392520D2*
Y1277953D1*
X2268898Y1301575D2*
X2316142D1*
X2292520D2*
Y1277953D1*
X1724409Y712205D2*
X1771654D1*
X1748031D2*
Y688583D1*
X1824409Y712205D2*
X1871654D1*
X1848031D2*
Y688583D1*
X1924409Y712205D2*
X1971654D1*
X1948031D2*
Y688583D1*
X2024409Y712205D2*
X2071654D1*
X2048031D2*
Y688583D1*
X2124409Y712205D2*
X2171654D1*
X2148031D2*
Y688583D1*
X2124409Y1312205D2*
X2171654D1*
X2148031D2*
Y1288583D1*
X2024409Y1312205D2*
X2071654D1*
X2048031D2*
Y1288583D1*
X1924409Y1312205D2*
X1971654D1*
X1948031D2*
Y1288583D1*
X1824409Y1312205D2*
X1871654D1*
X1848031D2*
Y1288583D1*
X1724409Y1312205D2*
X1771654D1*
X1748031D2*
Y1288583D1*
X1161811Y723622D2*
X1209055D1*
X1185433D2*
Y700000D1*
X1261811Y723622D2*
X1309055D1*
X1285433D2*
Y700000D1*
X1361811Y723622D2*
X1409055D1*
X1385433D2*
Y700000D1*
X1461811Y723622D2*
X1509055D1*
X1485433D2*
Y700000D1*
X1561811Y723622D2*
X1609055D1*
X1585433D2*
Y700000D1*
X1561811Y1323622D2*
X1609055D1*
X1585433D2*
Y1300000D1*
X1461811Y1323622D2*
X1509055D1*
X1485433D2*
Y1300000D1*
X1361811Y1323622D2*
X1409055D1*
X1385433D2*
Y1300000D1*
X1261811Y1323622D2*
X1309055D1*
X1285433D2*
Y1300000D1*
X1161811Y1323622D2*
X1209055D1*
X1185433D2*
Y1300000D1*
X597638Y729921D2*
X644882D1*
X621260D2*
Y706299D1*
X697638Y729921D2*
X744882D1*
X721260D2*
Y706299D1*
X797638Y729921D2*
X844882D1*
X821260D2*
Y706299D1*
X897638Y729921D2*
X944882D1*
X921260D2*
Y706299D1*
X997638Y729921D2*
X1044882D1*
X1021260D2*
Y706299D1*
X997638Y1329921D2*
X1044882D1*
X1021260D2*
Y1306299D1*
X897638Y1329921D2*
X944882D1*
X921260D2*
Y1306299D1*
X797638Y1329921D2*
X844882D1*
X821260D2*
Y1306299D1*
X697638Y1329921D2*
X744882D1*
X721260D2*
Y1306299D1*
X597638Y1329921D2*
X644882D1*
X621260D2*
Y1306299D1*
X838976Y2133858D2*
X862598Y2110236D1*
X886220Y2133858D1*
X938976D2*
X962598Y2110236D1*
X986220Y2133858D1*
X1038976D2*
X1062598Y2110236D1*
X1086220Y2133858D1*
X1138976D2*
X1162598Y2110236D1*
X1186220Y2133858D1*
X1238976D2*
X1262598Y2110236D1*
X1286220Y2133858D1*
X1338976D2*
X1362598Y2110236D1*
X1386220Y2133858D1*
X1438976D2*
X1462598Y2110236D1*
X1486220Y2133858D1*
X1538976D2*
X1562598Y2110236D1*
X1586220Y2133858D1*
X1638976D2*
X1662598Y2110236D1*
X1686220Y2133858D1*
X1738976D2*
X1762598Y2110236D1*
X1786220Y2133858D1*
X1838976D2*
X1862598Y2110236D1*
X1886220Y2133858D1*
X1938976D2*
X1962598Y2110236D1*
X1986220Y2133858D1*
X2038976D2*
X2062598Y2110236D1*
X2086220Y2133858D1*
X2138976D2*
X2162598Y2110236D1*
X2186220Y2133858D1*
X2238976D2*
X2262598Y2110236D1*
X2286220Y2133858D1*
X2338976D2*
X2362598Y2110236D1*
X2386220Y2133858D1*
X2455906Y1562205D2*
X2479528Y1538583D1*
X2503150Y1562205D1*
X2479528Y1538583D2*
Y1514961D1*
X2455906Y1612205D2*
X2479528Y1588583D1*
X2503150Y1612205D1*
X2479528Y1588583D2*
Y1564961D1*
X2455906Y1662205D2*
X2479528Y1638583D1*
X2503150Y1662205D1*
X2479528Y1638583D2*
Y1614961D1*
X1946457Y1566142D2*
X1970079Y1542520D1*
X1993701Y1566142D1*
X1970079Y1542520D2*
Y1518898D1*
X1946457Y1616142D2*
X1970079Y1592520D1*
X1993701Y1616142D1*
X1970079Y1592520D2*
Y1568898D1*
X1946457Y1666142D2*
X1970079Y1642520D1*
X1993701Y1666142D1*
X1970079Y1642520D2*
Y1618898D1*
X1377953Y1577165D2*
X1401575Y1553543D1*
X1425197Y1577165D1*
X1401575Y1553543D2*
Y1529921D1*
X1377953Y1627165D2*
X1401575Y1603543D1*
X1425197Y1627165D1*
X1401575Y1603543D2*
Y1579921D1*
X1377953Y1677165D2*
X1401575Y1653543D1*
X1425197Y1677165D1*
X1401575Y1653543D2*
Y1629921D1*
X814961Y1609449D2*
X838583Y1585827D1*
X862205Y1609449D1*
X838583Y1585827D2*
Y1562205D1*
X814961Y1659449D2*
X838583Y1635827D1*
X862205Y1659449D1*
X838583Y1635827D2*
Y1612205D1*
X814961Y1709449D2*
X838583Y1685827D1*
X862205Y1709449D1*
X838583Y1685827D2*
Y1662205D1*
X2607480Y1612598D2*
X2654724Y1565354D1*
Y1612598D2*
X2607480Y1565354D1*
Y1912598D2*
X2654724Y1865354D1*
Y1912598D2*
X2607480Y1865354D1*
X2131102Y1616142D2*
X2178346Y1568898D1*
Y1616142D2*
X2131102Y1568898D1*
Y1916142D2*
X2178346Y1868898D1*
Y1916142D2*
X2131102Y1868898D1*
X1514173Y1627165D2*
X1561417Y1579921D1*
Y1627165D2*
X1514173Y1579921D1*
Y1927165D2*
X1561417Y1879921D1*
Y1927165D2*
X1514173Y1879921D1*
X986220Y1659055D2*
X1033465Y1611811D1*
Y1659055D2*
X986220Y1611811D1*
Y1959055D2*
X1033465Y1911811D1*
Y1959055D2*
X986220Y1911811D1*
X1585433Y1202362D2*
Y1155118D1*
X1561811Y1178740D2*
X1609055D1*
X2201024Y1202362D2*
Y1155118D1*
X2177402Y1178740D2*
X2224646D1*
X872839Y1202362D2*
Y1155118D1*
X849217Y1178740D2*
X896461D1*
X1432441Y621256D2*
Y574012D1*
X1408819Y597634D2*
X1456063D1*
X1848031Y1429055D2*
Y1381811D1*
X1824409Y1405433D2*
X1871653D1*
X1285433Y1502283D2*
Y1455039D1*
X1261811Y1478661D2*
X1309055D1*
X2964042Y2284646D2*
X3357743D1*
Y2127165D1*
X2964042D1*
Y2284646D1*
Y2127165D2*
X3357743D1*
Y1969685D1*
X2964042D1*
Y2127165D1*
Y1969685D2*
X3357743D1*
Y1812205D1*
X2964042D1*
Y1969685D1*
Y1812205D2*
X3357743D1*
Y1654724D1*
X2964042D1*
Y1812205D1*
Y1654724D2*
X3357743D1*
Y1497244D1*
X2964042D1*
Y1654724D1*
Y1497244D2*
X3357743D1*
Y1339764D1*
X2964042D1*
Y1497244D1*
X3357743Y2284646D2*
X4670079D1*
Y2127165D1*
X3357743D1*
Y2284646D1*
Y2127165D2*
X4670079D1*
Y1969685D1*
X3357743D1*
Y2127165D1*
Y1969685D2*
X4670079D1*
Y1812205D1*
X3357743D1*
Y1969685D1*
Y1812205D2*
X4670079D1*
Y1654724D1*
X3357743D1*
Y1812205D1*
Y1654724D2*
X4670079D1*
Y1497244D1*
X3357743D1*
Y1654724D1*
Y1497244D2*
X4670079D1*
Y1339764D1*
X3357743D1*
Y1497244D1*
X4670079Y2284646D2*
X5195013D1*
Y2127165D1*
X4670079D1*
Y2284646D1*
Y2127165D2*
X5195013D1*
Y1969685D1*
X4670079D1*
Y2127165D1*
Y1969685D2*
X5195013D1*
Y1812205D1*
X4670079D1*
Y1969685D1*
Y1812205D2*
X5195013D1*
Y1654724D1*
X4670079D1*
Y1812205D1*
Y1654724D2*
X5195013D1*
Y1497244D1*
X4670079D1*
Y1654724D1*
Y1497244D2*
X5195013D1*
Y1339764D1*
X4670079D1*
Y1497244D1*
X5195013Y2284646D2*
X5719948D1*
Y2127165D1*
X5195013D1*
Y2284646D1*
Y2127165D2*
X5719948D1*
Y1969685D1*
X5195013D1*
Y2127165D1*
Y1969685D2*
X5719948D1*
Y1812205D1*
X5195013D1*
Y1969685D1*
Y1812205D2*
X5719948D1*
Y1654724D1*
X5195013D1*
Y1812205D1*
Y1654724D2*
X5719948D1*
Y1497244D1*
X5195013D1*
Y1654724D1*
Y1497244D2*
X5719948D1*
Y1339764D1*
X5195013D1*
Y1497244D1*
X3095276Y2072047D2*
Y2024803D1*
X3071654Y2048425D2*
X3118898D1*
X3071654Y1914567D2*
X3118898Y1867323D1*
Y1914567D2*
X3071654Y1867323D1*
Y1757087D2*
X3095276Y1733465D1*
X3118898Y1757087D1*
X3095276Y1733465D2*
Y1709843D1*
X3071654Y1575984D2*
X3118898D1*
X3095276D2*
Y1552362D1*
X3071654Y1442126D2*
X3095276Y1418504D1*
X3118898Y1442126D1*
X3095794Y2243571D2*
X3089140Y2250303D1*
X3079081Y2253631D1*
X3065695D1*
X3055636Y2250303D1*
X3048904Y2243571D1*
Y2236917D1*
X3052308Y2230185D1*
X3055636Y2226858D1*
X3062290Y2223531D1*
X3082408Y2216799D1*
X3089140Y2213472D1*
X3092467Y2210067D1*
X3095794Y2203413D1*
Y2193354D1*
X3089140Y2186699D1*
X3079081Y2183295D1*
X3065695D1*
X3055636Y2186699D1*
X3048904Y2193354D1*
X3120814Y2230185D2*
X3140855Y2183295D1*
X3134200Y2169908D1*
X3127468Y2163176D1*
X3120814Y2159849D1*
X3117409D1*
X3160973Y2230185D2*
X3140855Y2183295D1*
X3182588Y2230185D2*
Y2183295D1*
Y2216799D2*
X3192647Y2226858D1*
X3199379Y2230185D1*
X3209360D1*
X3216092Y2226858D1*
X3219419Y2216799D1*
Y2183295D1*
Y2216799D2*
X3229478Y2226858D1*
X3236210Y2230185D1*
X3246192D1*
X3252924Y2226858D1*
X3256328Y2216799D1*
Y2183295D1*
X3914837Y2253631D2*
Y2183295D1*
X3961727Y2253631D2*
Y2183295D1*
X3914837Y2220126D2*
X3961727D1*
X4000056Y2230185D2*
X3993401Y2226858D1*
X3986670Y2220126D1*
X3983342Y2210067D1*
Y2203413D1*
X3986670Y2193354D1*
X3993401Y2186699D1*
X4000056Y2183295D1*
X4010115D1*
X4016847Y2186699D1*
X4023501Y2193354D1*
X4026906Y2203413D1*
Y2210067D1*
X4023501Y2220126D1*
X4016847Y2226858D1*
X4010115Y2230185D1*
X4000056D1*
X4048521Y2253631D2*
Y2183295D1*
X4070136Y2210067D2*
X4110295D1*
Y2216799D1*
X4106967Y2223531D1*
X4103640Y2226858D1*
X4096908Y2230185D1*
X4086849D1*
X4080195Y2226858D1*
X4073463Y2220126D1*
X4070136Y2210067D1*
Y2203413D1*
X4073463Y2193354D1*
X4080195Y2186699D1*
X4086849Y2183295D1*
X4096908D1*
X4103640Y2186699D1*
X4110295Y2193354D1*
X3402517Y2062646D2*
X3432616D1*
X3442675Y2066050D1*
X3446080Y2069378D1*
X3449407Y2076032D1*
Y2082764D1*
X3446080Y2089418D1*
X3442675Y2092823D1*
X3432616Y2096150D1*
X3402517D1*
Y2025814D1*
X3425962Y2062646D2*
X3449407Y2025814D1*
X3487736Y2072705D2*
X3481081Y2069378D1*
X3474349Y2062646D1*
X3471022Y2052587D1*
Y2045932D1*
X3474349Y2035873D1*
X3481081Y2029219D1*
X3487736Y2025814D1*
X3497795D1*
X3504527Y2029219D1*
X3511181Y2035873D1*
X3514586Y2045932D1*
Y2052587D1*
X3511181Y2062646D1*
X3504527Y2069378D1*
X3497795Y2072705D1*
X3487736D1*
X3536201D2*
Y2039200D1*
X3539528Y2029219D1*
X3546260Y2025814D1*
X3556319D1*
X3562973Y2029219D1*
X3573032Y2039200D1*
Y2072705D2*
Y2025814D1*
X3594647Y2072705D2*
Y2025814D1*
Y2059319D2*
X3604706Y2069378D1*
X3611438Y2072705D1*
X3621420D1*
X3628152Y2069378D1*
X3631479Y2059319D1*
Y2025814D1*
X3693253Y2096150D2*
Y2025814D1*
Y2062646D2*
X3686598Y2069378D1*
X3679866Y2072705D1*
X3669807D1*
X3663153Y2069378D1*
X3656421Y2062646D1*
X3653094Y2052587D1*
Y2045932D1*
X3656421Y2035873D1*
X3663153Y2029219D1*
X3669807Y2025814D1*
X3679866D1*
X3686598Y2029219D1*
X3693253Y2035873D1*
X3803027Y2096073D2*
X3792968Y2092746D1*
X3786236Y2082687D1*
X3782909Y2065973D1*
Y2055914D1*
X3786236Y2039200D1*
X3792968Y2029141D1*
X3803027Y2025814D1*
X3809681D1*
X3819740Y2029141D1*
X3826395Y2039200D1*
X3829800Y2055914D1*
Y2065973D1*
X3826395Y2082687D1*
X3819740Y2092746D1*
X3809681Y2096073D1*
X3803027D1*
X3826395Y2082687D2*
X3786236Y2039200D1*
X3854742Y2032546D2*
X3851414Y2029141D1*
X3854742Y2025814D1*
X3858146Y2029141D1*
X3854742Y2032546D1*
X3913266Y2025814D2*
Y2096073D1*
X3879761Y2049260D1*
X3929979D1*
X3995158Y2072705D2*
X3991753Y2062646D1*
X3985098Y2055914D1*
X3975039Y2052587D1*
X3971712D1*
X3961653Y2055914D1*
X3954999Y2062646D1*
X3951594Y2072705D1*
Y2076032D1*
X3954999Y2086091D1*
X3961653Y2092746D1*
X3971712Y2096073D1*
X3975039D1*
X3985098Y2092746D1*
X3991753Y2086091D1*
X3995158Y2072705D1*
Y2055914D1*
X3991753Y2039200D1*
X3985098Y2029141D1*
X3975039Y2025814D1*
X3968385D1*
X3958326Y2029141D1*
X3954999Y2035873D1*
X4084814Y2072705D2*
Y2025814D1*
Y2059319D2*
X4094873Y2069378D1*
X4101605Y2072705D1*
X4111586D1*
X4118318Y2069378D1*
X4121645Y2059319D1*
Y2025814D1*
Y2059319D2*
X4131705Y2069378D1*
X4138436Y2072705D1*
X4148418D1*
X4155150Y2069378D1*
X4158554Y2059319D1*
Y2025814D1*
X4180169Y2072705D2*
Y2025814D1*
Y2059319D2*
X4190228Y2069378D1*
X4196960Y2072705D1*
X4206942D1*
X4213674Y2069378D1*
X4217001Y2059319D1*
Y2025814D1*
Y2059319D2*
X4227060Y2069378D1*
X4233792Y2072705D1*
X4243774D1*
X4250505Y2069378D1*
X4253910Y2059319D1*
Y2025814D1*
X3402517Y1905166D2*
X3432616D1*
X3442675Y1908570D1*
X3446080Y1911897D1*
X3449407Y1918552D1*
Y1925284D1*
X3446080Y1931938D1*
X3442675Y1935343D1*
X3432616Y1938670D1*
X3402517D1*
Y1868334D1*
X3425962Y1905166D2*
X3449407Y1868334D1*
X3487736Y1915225D2*
X3481081Y1911897D1*
X3474349Y1905166D1*
X3471022Y1895106D1*
Y1888452D1*
X3474349Y1878393D1*
X3481081Y1871739D1*
X3487736Y1868334D1*
X3497795D1*
X3504527Y1871739D1*
X3511181Y1878393D1*
X3514586Y1888452D1*
Y1895106D1*
X3511181Y1905166D1*
X3504527Y1911897D1*
X3497795Y1915225D1*
X3487736D1*
X3536201D2*
Y1881720D1*
X3539528Y1871739D1*
X3546260Y1868334D1*
X3556319D1*
X3562973Y1871739D1*
X3573032Y1881720D1*
Y1915225D2*
Y1868334D1*
X3594647Y1915225D2*
Y1868334D1*
Y1901838D2*
X3604706Y1911897D1*
X3611438Y1915225D1*
X3621420D1*
X3628152Y1911897D1*
X3631479Y1901838D1*
Y1868334D1*
X3693253Y1938670D2*
Y1868334D1*
Y1905166D2*
X3686598Y1911897D1*
X3679866Y1915225D1*
X3669807D1*
X3663153Y1911897D1*
X3656421Y1905166D1*
X3653094Y1895106D1*
Y1888452D1*
X3656421Y1878393D1*
X3663153Y1871739D1*
X3669807Y1868334D1*
X3679866D1*
X3686598Y1871739D1*
X3693253Y1878393D1*
X3803027Y1938593D2*
X3792968Y1935265D1*
X3786236Y1925206D1*
X3782909Y1908493D1*
Y1898434D1*
X3786236Y1881720D1*
X3792968Y1871661D1*
X3803027Y1868334D1*
X3809681D1*
X3819740Y1871661D1*
X3826395Y1881720D1*
X3829800Y1898434D1*
Y1908493D1*
X3826395Y1925206D1*
X3819740Y1935265D1*
X3809681Y1938593D1*
X3803027D1*
X3826395Y1925206D2*
X3786236Y1881720D1*
X3854742Y1875066D2*
X3851414Y1871661D1*
X3854742Y1868334D1*
X3858146Y1871661D1*
X3854742Y1875066D1*
X3919920Y1938593D2*
X3886493D1*
X3883166Y1908493D1*
X3886493Y1911820D1*
X3896552Y1915225D1*
X3906534D1*
X3916593Y1911820D1*
X3923325Y1905166D1*
X3926652Y1895106D1*
Y1888452D1*
X3923325Y1878393D1*
X3916593Y1871661D1*
X3906534Y1868334D1*
X3896552D1*
X3886493Y1871661D1*
X3883166Y1875066D1*
X3879761Y1881720D1*
X3988426Y1928611D2*
X3985098Y1935265D1*
X3975039Y1938593D1*
X3968385D1*
X3958326Y1935265D1*
X3951594Y1925206D1*
X3948267Y1908493D1*
Y1891779D1*
X3951594Y1878393D1*
X3958326Y1871661D1*
X3968385Y1868334D1*
X3971712D1*
X3981694Y1871661D1*
X3988426Y1878393D1*
X3991753Y1888452D1*
Y1891779D1*
X3988426Y1901838D1*
X3981694Y1908493D1*
X3971712Y1911820D1*
X3968385D1*
X3958326Y1908493D1*
X3951594Y1901838D1*
X3948267Y1891779D1*
X4081409Y1915225D2*
Y1868334D1*
Y1901838D2*
X4091468Y1911897D1*
X4098200Y1915225D1*
X4108182D1*
X4114914Y1911897D1*
X4118241Y1901838D1*
Y1868334D1*
Y1901838D2*
X4128300Y1911897D1*
X4135032Y1915225D1*
X4145013D1*
X4151745Y1911897D1*
X4155150Y1901838D1*
Y1868334D1*
X4176765Y1915225D2*
Y1868334D1*
Y1901838D2*
X4186824Y1911897D1*
X4193556Y1915225D1*
X4203537D1*
X4210269Y1911897D1*
X4213596Y1901838D1*
Y1868334D1*
Y1901838D2*
X4223655Y1911897D1*
X4230387Y1915225D1*
X4240369D1*
X4247101Y1911897D1*
X4250505Y1901838D1*
Y1868334D1*
X3402517Y1747685D2*
X3432616D1*
X3442675Y1751090D1*
X3446080Y1754417D1*
X3449407Y1761071D1*
Y1767803D1*
X3446080Y1774458D1*
X3442675Y1777862D1*
X3432616Y1781190D1*
X3402517D1*
Y1710854D1*
X3425962Y1747685D2*
X3449407Y1710854D1*
X3487736Y1757744D2*
X3481081Y1754417D1*
X3474349Y1747685D1*
X3471022Y1737626D1*
Y1730972D1*
X3474349Y1720913D1*
X3481081Y1714258D1*
X3487736Y1710854D1*
X3497795D1*
X3504527Y1714258D1*
X3511181Y1720913D1*
X3514586Y1730972D1*
Y1737626D1*
X3511181Y1747685D1*
X3504527Y1754417D1*
X3497795Y1757744D1*
X3487736D1*
X3536201D2*
Y1724240D1*
X3539528Y1714258D1*
X3546260Y1710854D1*
X3556319D1*
X3562973Y1714258D1*
X3573032Y1724240D1*
Y1757744D2*
Y1710854D1*
X3594647Y1757744D2*
Y1710854D1*
Y1744358D2*
X3604706Y1754417D1*
X3611438Y1757744D1*
X3621420D1*
X3628152Y1754417D1*
X3631479Y1744358D1*
Y1710854D1*
X3693253Y1781190D2*
Y1710854D1*
Y1747685D2*
X3686598Y1754417D1*
X3679866Y1757744D1*
X3669807D1*
X3663153Y1754417D1*
X3656421Y1747685D1*
X3653094Y1737626D1*
Y1730972D1*
X3656421Y1720913D1*
X3663153Y1714258D1*
X3669807Y1710854D1*
X3679866D1*
X3686598Y1714258D1*
X3693253Y1720913D1*
X3803027Y1781112D2*
X3792968Y1777785D1*
X3786236Y1767726D1*
X3782909Y1751012D1*
Y1740953D1*
X3786236Y1724240D1*
X3792968Y1714181D1*
X3803027Y1710854D1*
X3809681D1*
X3819740Y1714181D1*
X3826395Y1724240D1*
X3829800Y1740953D1*
Y1751012D1*
X3826395Y1767726D1*
X3819740Y1777785D1*
X3809681Y1781112D1*
X3803027D1*
X3826395Y1767726D2*
X3786236Y1724240D1*
X3854742Y1717585D2*
X3851414Y1714181D1*
X3854742Y1710854D1*
X3858146Y1714181D1*
X3854742Y1717585D1*
X3893148Y1710854D2*
X3926652Y1781112D1*
X3879761D1*
X4016308Y1757744D2*
Y1710854D1*
Y1744358D2*
X4026367Y1754417D1*
X4033099Y1757744D1*
X4043081D1*
X4049813Y1754417D1*
X4053140Y1744358D1*
Y1710854D1*
Y1744358D2*
X4063199Y1754417D1*
X4069931Y1757744D1*
X4079912D1*
X4086644Y1754417D1*
X4090049Y1744358D1*
Y1710854D1*
X4111664Y1757744D2*
Y1710854D1*
Y1744358D2*
X4121723Y1754417D1*
X4128455Y1757744D1*
X4138436D1*
X4145168Y1754417D1*
X4148495Y1744358D1*
Y1710854D1*
Y1744358D2*
X4158554Y1754417D1*
X4165286Y1757744D1*
X4175268D1*
X4182000Y1754417D1*
X4185404Y1744358D1*
Y1710854D1*
X3402517Y1590205D2*
X3432616D1*
X3442675Y1593609D1*
X3446080Y1596937D1*
X3449407Y1603591D1*
Y1610323D1*
X3446080Y1616977D1*
X3442675Y1620382D1*
X3432616Y1623709D1*
X3402517D1*
Y1553373D1*
X3425962Y1590205D2*
X3449407Y1553373D1*
X3487736Y1600264D2*
X3481081Y1596937D1*
X3474349Y1590205D1*
X3471022Y1580146D1*
Y1573491D1*
X3474349Y1563432D1*
X3481081Y1556778D1*
X3487736Y1553373D1*
X3497795D1*
X3504527Y1556778D1*
X3511181Y1563432D1*
X3514586Y1573491D1*
Y1580146D1*
X3511181Y1590205D1*
X3504527Y1596937D1*
X3497795Y1600264D1*
X3487736D1*
X3536201D2*
Y1566760D1*
X3539528Y1556778D1*
X3546260Y1553373D1*
X3556319D1*
X3562973Y1556778D1*
X3573032Y1566760D1*
Y1600264D2*
Y1553373D1*
X3594647Y1600264D2*
Y1553373D1*
Y1586878D2*
X3604706Y1596937D1*
X3611438Y1600264D1*
X3621420D1*
X3628152Y1596937D1*
X3631479Y1586878D1*
Y1553373D1*
X3693253Y1623709D2*
Y1553373D1*
Y1590205D2*
X3686598Y1596937D1*
X3679866Y1600264D1*
X3669807D1*
X3663153Y1596937D1*
X3656421Y1590205D1*
X3653094Y1580146D1*
Y1573491D1*
X3656421Y1563432D1*
X3663153Y1556778D1*
X3669807Y1553373D1*
X3679866D1*
X3686598Y1556778D1*
X3693253Y1563432D1*
X3803027Y1623632D2*
X3792968Y1620305D1*
X3786236Y1610246D1*
X3782909Y1593532D1*
Y1583473D1*
X3786236Y1566760D1*
X3792968Y1556700D1*
X3803027Y1553373D1*
X3809681D1*
X3819740Y1556700D1*
X3826395Y1566760D1*
X3829800Y1583473D1*
Y1593532D1*
X3826395Y1610246D1*
X3819740Y1620305D1*
X3809681Y1623632D1*
X3803027D1*
X3826395Y1610246D2*
X3786236Y1566760D1*
X3854742Y1560105D2*
X3851414Y1556700D1*
X3854742Y1553373D1*
X3858146Y1556700D1*
X3854742Y1560105D1*
X3923325Y1600264D2*
X3919920Y1590205D1*
X3913266Y1583473D1*
X3903207Y1580146D1*
X3899879D1*
X3889820Y1583473D1*
X3883166Y1590205D1*
X3879761Y1600264D1*
Y1603591D1*
X3883166Y1613650D1*
X3889820Y1620305D1*
X3899879Y1623632D1*
X3903207D1*
X3913266Y1620305D1*
X3919920Y1613650D1*
X3923325Y1600264D1*
Y1583473D1*
X3919920Y1566760D1*
X3913266Y1556700D1*
X3903207Y1553373D1*
X3896552D1*
X3886493Y1556700D1*
X3883166Y1563432D1*
X4012981Y1600264D2*
Y1553373D1*
Y1586878D2*
X4023040Y1596937D1*
X4029772Y1600264D1*
X4039754D1*
X4046485Y1596937D1*
X4049813Y1586878D1*
Y1553373D1*
Y1586878D2*
X4059872Y1596937D1*
X4066604Y1600264D1*
X4076585D1*
X4083317Y1596937D1*
X4086722Y1586878D1*
Y1553373D1*
X4108337Y1600264D2*
Y1553373D1*
Y1586878D2*
X4118396Y1596937D1*
X4125127Y1600264D1*
X4135109D1*
X4141841Y1596937D1*
X4145168Y1586878D1*
Y1553373D1*
Y1586878D2*
X4155227Y1596937D1*
X4161959Y1600264D1*
X4171941D1*
X4178673Y1596937D1*
X4182077Y1586878D1*
Y1553373D1*
X3402517Y1432725D2*
X3432616D1*
X3442675Y1436129D1*
X3446080Y1439456D1*
X3449407Y1446111D1*
Y1452843D1*
X3446080Y1459497D1*
X3442675Y1462902D1*
X3432616Y1466229D1*
X3402517D1*
Y1395893D1*
X3425962Y1432725D2*
X3449407Y1395893D1*
X3487736Y1442784D2*
X3481081Y1439456D1*
X3474349Y1432725D1*
X3471022Y1422666D1*
Y1416011D1*
X3474349Y1405952D1*
X3481081Y1399298D1*
X3487736Y1395893D1*
X3497795D1*
X3504527Y1399298D1*
X3511181Y1405952D1*
X3514586Y1416011D1*
Y1422666D1*
X3511181Y1432725D1*
X3504527Y1439456D1*
X3497795Y1442784D1*
X3487736D1*
X3536201D2*
Y1409279D1*
X3539528Y1399298D1*
X3546260Y1395893D1*
X3556319D1*
X3562973Y1399298D1*
X3573032Y1409279D1*
Y1442784D2*
Y1395893D1*
X3594647Y1442784D2*
Y1395893D1*
Y1429397D2*
X3604706Y1439456D1*
X3611438Y1442784D1*
X3621420D1*
X3628152Y1439456D1*
X3631479Y1429397D1*
Y1395893D1*
X3693253Y1466229D2*
Y1395893D1*
Y1432725D2*
X3686598Y1439456D1*
X3679866Y1442784D1*
X3669807D1*
X3663153Y1439456D1*
X3656421Y1432725D1*
X3653094Y1422666D1*
Y1416011D1*
X3656421Y1405952D1*
X3663153Y1399298D1*
X3669807Y1395893D1*
X3679866D1*
X3686598Y1399298D1*
X3693253Y1405952D1*
X3782909Y1452765D2*
X3789641Y1456170D1*
X3799700Y1466152D1*
Y1395893D1*
X3824642Y1402625D2*
X3821315Y1399220D1*
X3824642Y1395893D1*
X3828047Y1399220D1*
X3824642Y1402625D1*
X3849661Y1452765D2*
X3856393Y1456170D1*
X3866452Y1466152D1*
Y1395893D1*
X3956109Y1442784D2*
Y1395893D1*
Y1429397D2*
X3966168Y1439456D1*
X3972900Y1442784D1*
X3982881D1*
X3989613Y1439456D1*
X3992940Y1429397D1*
Y1395893D1*
Y1429397D2*
X4002999Y1439456D1*
X4009731Y1442784D1*
X4019713D1*
X4026445Y1439456D1*
X4029849Y1429397D1*
Y1395893D1*
X4051464Y1442784D2*
Y1395893D1*
Y1429397D2*
X4061523Y1439456D1*
X4068255Y1442784D1*
X4078237D1*
X4084969Y1439456D1*
X4088296Y1429397D1*
Y1395893D1*
Y1429397D2*
X4098355Y1439456D1*
X4105087Y1442784D1*
X4115068D1*
X4121800Y1439456D1*
X4125205Y1429397D1*
Y1395893D1*
X4778398Y2216799D2*
X4808575D1*
X4818557Y2220126D1*
X4821961Y2223531D1*
X4825289Y2230185D1*
Y2240244D1*
X4821961Y2246899D1*
X4818557Y2250303D1*
X4808575Y2253631D1*
X4778398D1*
Y2183295D1*
X4846903Y2253631D2*
Y2183295D1*
X4908677Y2230185D2*
Y2183295D1*
Y2220126D2*
X4902023Y2226858D1*
X4895291Y2230185D1*
X4885309D1*
X4878577Y2226858D1*
X4871923Y2220126D1*
X4868518Y2210067D1*
Y2203413D1*
X4871923Y2193354D1*
X4878577Y2186699D1*
X4885309Y2183295D1*
X4895291D1*
X4902023Y2186699D1*
X4908677Y2193354D1*
X4940351Y2253631D2*
Y2196681D1*
X4943678Y2186699D1*
X4950410Y2183295D1*
X4957065D1*
X4930292Y2230185D2*
X4953738D1*
X4978680Y2210067D2*
X5018839D1*
Y2216799D1*
X5015511Y2223531D1*
X5012184Y2226858D1*
X5005452Y2230185D1*
X4995393D1*
X4988739Y2226858D1*
X4982007Y2220126D1*
X4978680Y2210067D1*
Y2203413D1*
X4982007Y2193354D1*
X4988739Y2186699D1*
X4995393Y2183295D1*
X5005452D1*
X5012184Y2186699D1*
X5018839Y2193354D1*
X5080612Y2253631D2*
Y2183295D1*
Y2220126D2*
X5073958Y2226858D1*
X5067226Y2230185D1*
X5057167D1*
X5050513Y2226858D1*
X5043781Y2220126D1*
X5040453Y2210067D1*
Y2203413D1*
X5043781Y2193354D1*
X5050513Y2186699D1*
X5057167Y2183295D1*
X5067226D1*
X5073958Y2186699D1*
X5080612Y2193354D1*
X4714853Y2096150D2*
X4741625Y2062646D1*
Y2025814D1*
X4768398Y2096150D2*
X4741625Y2062646D1*
X4790013Y2052587D2*
X4830171D1*
Y2059319D1*
X4826844Y2066050D1*
X4823517Y2069378D1*
X4816785Y2072705D1*
X4806726D1*
X4800072Y2069378D1*
X4793340Y2062646D1*
X4790013Y2052587D1*
Y2045932D1*
X4793340Y2035873D1*
X4800072Y2029219D1*
X4806726Y2025814D1*
X4816785D1*
X4823517Y2029219D1*
X4830171Y2035873D1*
X4888618Y2062646D2*
X4885291Y2069378D1*
X4875232Y2072705D1*
X4865173D1*
X4855114Y2069378D1*
X4851786Y2062646D1*
X4855114Y2055991D1*
X4861845Y2052587D1*
X4878559Y2049260D1*
X4885291Y2045932D1*
X4888618Y2039200D1*
Y2035873D1*
X4885291Y2029219D1*
X4875232Y2025814D1*
X4865173D1*
X4855114Y2029219D1*
X4851786Y2035873D1*
X4714853Y1938670D2*
X4741625Y1905166D1*
Y1868334D1*
X4768398Y1938670D2*
X4741625Y1905166D1*
X4790013Y1895106D2*
X4830171D1*
Y1901838D1*
X4826844Y1908570D1*
X4823517Y1911897D1*
X4816785Y1915225D1*
X4806726D1*
X4800072Y1911897D1*
X4793340Y1905166D1*
X4790013Y1895106D1*
Y1888452D1*
X4793340Y1878393D1*
X4800072Y1871739D1*
X4806726Y1868334D1*
X4816785D1*
X4823517Y1871739D1*
X4830171Y1878393D1*
X4888618Y1905166D2*
X4885291Y1911897D1*
X4875232Y1915225D1*
X4865173D1*
X4855114Y1911897D1*
X4851786Y1905166D1*
X4855114Y1898511D1*
X4861845Y1895106D1*
X4878559Y1891779D1*
X4885291Y1888452D1*
X4888618Y1881720D1*
Y1878393D1*
X4885291Y1871739D1*
X4875232Y1868334D1*
X4865173D1*
X4855114Y1871739D1*
X4851786Y1878393D1*
X4714853Y1781190D2*
X4741625Y1747685D1*
Y1710854D1*
X4768398Y1781190D2*
X4741625Y1747685D1*
X4790013Y1737626D2*
X4830171D1*
Y1744358D1*
X4826844Y1751090D1*
X4823517Y1754417D1*
X4816785Y1757744D1*
X4806726D1*
X4800072Y1754417D1*
X4793340Y1747685D1*
X4790013Y1737626D1*
Y1730972D1*
X4793340Y1720913D1*
X4800072Y1714258D1*
X4806726Y1710854D1*
X4816785D1*
X4823517Y1714258D1*
X4830171Y1720913D1*
X4888618Y1747685D2*
X4885291Y1754417D1*
X4875232Y1757744D1*
X4865173D1*
X4855114Y1754417D1*
X4851786Y1747685D1*
X4855114Y1741031D1*
X4861845Y1737626D1*
X4878559Y1734299D1*
X4885291Y1730972D1*
X4888618Y1724240D1*
Y1720913D1*
X4885291Y1714258D1*
X4875232Y1710854D1*
X4865173D1*
X4855114Y1714258D1*
X4851786Y1720913D1*
X4714853Y1623709D2*
X4741625Y1590205D1*
Y1553373D1*
X4768398Y1623709D2*
X4741625Y1590205D1*
X4790013Y1580146D2*
X4830171D1*
Y1586878D1*
X4826844Y1593609D1*
X4823517Y1596937D1*
X4816785Y1600264D1*
X4806726D1*
X4800072Y1596937D1*
X4793340Y1590205D1*
X4790013Y1580146D1*
Y1573491D1*
X4793340Y1563432D1*
X4800072Y1556778D1*
X4806726Y1553373D1*
X4816785D1*
X4823517Y1556778D1*
X4830171Y1563432D1*
X4888618Y1590205D2*
X4885291Y1596937D1*
X4875232Y1600264D1*
X4865173D1*
X4855114Y1596937D1*
X4851786Y1590205D1*
X4855114Y1583550D1*
X4861845Y1580146D1*
X4878559Y1576819D1*
X4885291Y1573491D1*
X4888618Y1566760D1*
Y1563432D1*
X4885291Y1556778D1*
X4875232Y1553373D1*
X4865173D1*
X4855114Y1556778D1*
X4851786Y1563432D1*
X4714853Y1466229D2*
X4741625Y1432725D1*
Y1395893D1*
X4768398Y1466229D2*
X4741625Y1432725D1*
X4790013Y1422666D2*
X4830171D1*
Y1429397D1*
X4826844Y1436129D1*
X4823517Y1439456D1*
X4816785Y1442784D1*
X4806726D1*
X4800072Y1439456D1*
X4793340Y1432725D1*
X4790013Y1422666D1*
Y1416011D1*
X4793340Y1405952D1*
X4800072Y1399298D1*
X4806726Y1395893D1*
X4816785D1*
X4823517Y1399298D1*
X4830171Y1405952D1*
X4888618Y1432725D2*
X4885291Y1439456D1*
X4875232Y1442784D1*
X4865173D1*
X4855114Y1439456D1*
X4851786Y1432725D1*
X4855114Y1426070D1*
X4861845Y1422666D1*
X4878559Y1419338D1*
X4885291Y1416011D1*
X4888618Y1409279D1*
Y1405952D1*
X4885291Y1399298D1*
X4875232Y1395893D1*
X4865173D1*
X4855114Y1399298D1*
X4851786Y1405952D1*
X5361376Y2236917D2*
X5358049Y2243571D1*
X5351317Y2250303D1*
X5344663Y2253631D1*
X5331276D1*
X5324545Y2250303D1*
X5317890Y2243571D1*
X5314486Y2236917D1*
X5311158Y2226858D1*
Y2210067D1*
X5314486Y2200085D1*
X5317890Y2193354D1*
X5324545Y2186699D1*
X5331276Y2183295D1*
X5344663D1*
X5351317Y2186699D1*
X5358049Y2193354D1*
X5361376Y2200085D1*
X5399705Y2230185D2*
X5393050Y2226858D1*
X5386318Y2220126D1*
X5382991Y2210067D1*
Y2203413D1*
X5386318Y2193354D1*
X5393050Y2186699D1*
X5399705Y2183295D1*
X5409764D1*
X5416496Y2186699D1*
X5423150Y2193354D1*
X5426555Y2203413D1*
Y2210067D1*
X5423150Y2220126D1*
X5416496Y2226858D1*
X5409764Y2230185D1*
X5399705D1*
X5448170D2*
Y2196681D1*
X5451497Y2186699D1*
X5458229Y2183295D1*
X5468288D1*
X5474942Y2186699D1*
X5485001Y2196681D1*
Y2230185D2*
Y2183295D1*
X5506616Y2230185D2*
Y2183295D1*
Y2216799D2*
X5516675Y2226858D1*
X5523407Y2230185D1*
X5533389D1*
X5540121Y2226858D1*
X5543448Y2216799D1*
Y2183295D1*
X5575122Y2253631D2*
Y2196681D1*
X5578449Y2186699D1*
X5585181Y2183295D1*
X5591835D1*
X5565063Y2230185D2*
X5588508D1*
X5279946Y2086091D2*
X5276619Y2092746D1*
X5266560Y2096073D1*
X5259905D1*
X5249846Y2092746D1*
X5243114Y2082687D1*
X5239787Y2065973D1*
Y2049260D1*
X5243114Y2035873D1*
X5249846Y2029141D1*
X5259905Y2025814D1*
X5263232D1*
X5273214Y2029141D1*
X5279946Y2035873D1*
X5283273Y2045932D1*
Y2049260D1*
X5279946Y2059319D1*
X5273214Y2065973D1*
X5263232Y2069300D1*
X5259905D1*
X5249846Y2065973D1*
X5243114Y2059319D1*
X5239787Y2049260D1*
X5256500Y1938593D2*
X5246519Y1935265D1*
X5243114Y1928611D1*
Y1921879D1*
X5246519Y1915225D1*
X5253173Y1911820D1*
X5266560Y1908493D1*
X5276619Y1905166D1*
X5283273Y1898434D1*
X5286600Y1891779D1*
Y1881720D1*
X5283273Y1875066D1*
X5279946Y1871661D1*
X5269887Y1868334D1*
X5256500D1*
X5246519Y1871661D1*
X5243114Y1875066D1*
X5239787Y1881720D1*
Y1891779D1*
X5243114Y1898434D1*
X5249846Y1905166D1*
X5259828Y1908493D1*
X5273214Y1911820D1*
X5279946Y1915225D1*
X5283273Y1921879D1*
Y1928611D1*
X5279946Y1935265D1*
X5269887Y1938593D1*
X5256500D1*
X5239787Y1767726D2*
X5246519Y1771131D1*
X5256578Y1781112D1*
Y1710854D1*
X5281597Y1764399D2*
Y1767726D1*
X5284925Y1774458D1*
X5288252Y1777785D1*
X5294984Y1781112D1*
X5308370D1*
X5315024Y1777785D1*
X5318352Y1774458D1*
X5321756Y1767726D1*
Y1761071D1*
X5318352Y1754340D1*
X5311697Y1744358D1*
X5278193Y1710854D1*
X5325083D1*
X5273291Y1553373D2*
Y1623632D1*
X5239787Y1576819D1*
X5290005D1*
X5331738Y1623632D2*
X5321679Y1620305D1*
X5314947Y1610246D1*
X5311620Y1593532D1*
Y1583473D1*
X5314947Y1566760D1*
X5321679Y1556700D1*
X5331738Y1553373D1*
X5338392D1*
X5348451Y1556700D1*
X5355106Y1566760D1*
X5358510Y1583473D1*
Y1593532D1*
X5355106Y1610246D1*
X5348451Y1620305D1*
X5338392Y1623632D1*
X5331738D1*
X5355106Y1610246D2*
X5314947Y1566760D1*
X5239787Y1452765D2*
X5246519Y1456170D1*
X5256578Y1466152D1*
Y1395893D1*
X5318352Y1456170D2*
X5315024Y1462824D1*
X5304965Y1466152D1*
X5298311D1*
X5288252Y1462824D1*
X5281520Y1452765D1*
X5278193Y1436052D1*
Y1419338D1*
X5281520Y1405952D1*
X5288252Y1399220D1*
X5298311Y1395893D1*
X5301638D1*
X5311620Y1399220D1*
X5318352Y1405952D1*
X5321679Y1416011D1*
Y1419338D1*
X5318352Y1429397D1*
X5311620Y1436052D1*
X5301638Y1439379D1*
X5298311D1*
X5288252Y1436052D1*
X5281520Y1429397D1*
X5278193Y1419338D1*
M02*
