G04 DipTrace 3.0.0.1*
G04 TopAssy.gbr*
%MOIN*%
G04 #@! TF.FileFunction,Drawing,Top*
G04 #@! TF.Part,Single*
%ADD10C,0.009843*%
%ADD14C,0.001312*%
%FSLAX26Y26*%
G04*
G70*
G90*
G75*
G01*
G04 TopAssy*
%LPD*%
X1521969Y1185984D2*
D10*
X1781969D1*
Y1065984D1*
X1521969D1*
Y1185984D1*
X1839685Y1391890D2*
X2099685D1*
Y1271890D1*
X1839685D1*
Y1391890D1*
X2038819Y873701D2*
X2158819D1*
Y613701D1*
X2038819D1*
Y873701D1*
X954567Y1068583D2*
X1074567D1*
Y808583D1*
X954567D1*
Y1068583D1*
X749213Y1380315D2*
X917717D1*
Y1129921D1*
X749213D1*
Y1380315D1*
X1329928Y1054290D2*
X1497245D1*
Y852796D1*
X1329928D1*
Y1054290D1*
X1897251Y1147597D2*
X2064568D1*
Y946103D1*
X1897251D1*
Y1147597D1*
X1231024Y1325787D2*
X1291024D1*
Y975787D1*
X1231024D1*
Y1325787D1*
X1104646Y1330118D2*
X1164646D1*
Y980118D1*
X1104646D1*
Y1330118D1*
X1105039Y920276D2*
X1165039D1*
Y570276D1*
X1105039D1*
Y920276D1*
X1238110Y919882D2*
X1298110D1*
Y569882D1*
X1238110D1*
Y919882D1*
X1371063Y1335118D2*
X1721063D1*
Y1275118D1*
X1371063D1*
Y1335118D1*
X1435630Y1448110D2*
X1785630D1*
Y1388110D1*
X1435630D1*
Y1448110D1*
X1520787Y925000D2*
X1580787D1*
Y575000D1*
X1520787D1*
Y925000D1*
X1678150Y820551D2*
X2028150D1*
Y760551D1*
X1678150D1*
Y820551D1*
X2202677Y1093898D2*
X2262677D1*
Y743898D1*
X2202677D1*
Y1093898D1*
X2196850Y1396063D2*
X2463386D1*
Y1249213D1*
X2196850D1*
Y1396063D1*
X756299Y964961D2*
X924803D1*
Y714567D1*
X756299D1*
Y964961D1*
X426378Y1595276D2*
D14*
X2569291D1*
Y479134D1*
X426378D1*
Y1595276D1*
X393701Y1599213D2*
X2573228D1*
Y491339D1*
X393701D1*
Y1599213D1*
X587402Y1646063D2*
X2573228D1*
Y491339D1*
X587402D1*
Y1646063D1*
X2584252D1*
Y413386D1*
X587402D1*
Y1646063D1*
M02*
