G04 DipTrace 3.0.0.1*
G04 TopSilk.gbr*
%MOIN*%
G04 #@! TF.FileFunction,Legend,Top*
G04 #@! TF.Part,Single*
%ADD10C,0.009843*%
%ADD21C,0.011811*%
%ADD43C,0.00772*%
%FSLAX26Y26*%
G04*
G70*
G90*
G75*
G01*
G04 TopSilk*
%LPD*%
X845827Y1179666D2*
D10*
Y1319546D1*
X725827Y1179666D2*
Y1319546D1*
X845827D2*
G03X725827Y1319546I-60000J60D01*
G01*
Y1179666D2*
G03X845827Y1179666I60000J-60D01*
G01*
X815984Y858916D2*
Y719036D1*
X935984Y858916D2*
Y719036D1*
X815984D2*
G03X935984Y719036I60000J-60D01*
G01*
Y858916D2*
G03X815984Y858916I-60000J60D01*
G01*
X1167953Y1386082D2*
Y1246202D1*
X1287953Y1386082D2*
Y1246202D1*
X1167953D2*
G03X1287953Y1246202I60000J-60D01*
G01*
Y1386082D2*
G03X1167953Y1386082I-60000J60D01*
G01*
X1615906Y588328D2*
Y728208D1*
X1495906Y588328D2*
Y728208D1*
X1615906D2*
G03X1495906Y728208I-60000J60D01*
G01*
Y588328D2*
G03X1615906Y588328I60000J-60D01*
G01*
X905913Y1374833D2*
G02X905913Y1223592I66569J-75620D01*
G01*
Y1374833D1*
X1440975Y1035426D2*
G02X1289734Y1035426I-75620J-66569D01*
G01*
X1440975D1*
X1320701Y1551102D2*
Y1611102D1*
X1160401Y1551102D2*
X1320701D1*
X1160401D2*
Y1611102D1*
X1320701D1*
X901804Y1558189D2*
Y1618189D1*
X741504Y1558189D2*
X901804D1*
X741504D2*
Y1618189D1*
X901804D1*
X1462283Y1414796D2*
X1402283D1*
X1462283Y1254496D2*
Y1414796D1*
Y1254496D2*
X1402283D1*
Y1414796D1*
X759284Y1023543D2*
Y1083543D1*
X598984Y1023543D2*
X759284D1*
X598984D2*
Y1083543D1*
X759284D1*
X1754559Y1239685D2*
Y1299685D1*
X1594259Y1239685D2*
X1754559D1*
X1594259D2*
Y1299685D1*
X1754559D1*
X1184331Y1020307D2*
X1124331D1*
X1184331Y860007D2*
Y1020307D1*
Y860007D2*
X1124331D1*
Y1020307D1*
X1238811Y677087D2*
Y737087D1*
X1078511Y677087D2*
X1238811D1*
X1078511D2*
Y737087D1*
X1238811D1*
X1731181Y1099835D2*
X1671181D1*
X1731181Y939535D2*
Y1099835D1*
Y939535D2*
X1671181D1*
Y1099835D1*
X1238024Y550709D2*
Y610709D1*
X1077724Y550709D2*
X1238024D1*
X1077724D2*
Y610709D1*
X1238024D1*
X696063Y1135039D2*
D21*
X442520D1*
Y1260236D1*
X696063D1*
Y1135039D1*
X1893307Y677559D2*
X2018504D1*
Y931102D1*
X1893307D1*
Y677559D1*
X1890551Y1082283D2*
X2015748D1*
Y1335827D1*
X1890551D1*
Y1082283D1*
X790045Y1440891D2*
D43*
X787669Y1445644D1*
X782860Y1450453D1*
X778107Y1452829D1*
X768546D1*
X763737Y1450453D1*
X758984Y1445644D1*
X756552Y1440891D1*
X754175Y1433706D1*
Y1421713D1*
X756552Y1414583D1*
X758984Y1409774D1*
X763737Y1405021D1*
X768546Y1402589D1*
X778107D1*
X782860Y1405021D1*
X787669Y1409774D1*
X790045Y1414583D1*
X805485Y1443212D2*
X810293Y1445644D1*
X817478Y1452774D1*
Y1402589D1*
X869453Y980261D2*
X867076Y985014D1*
X862268Y989823D1*
X857515Y992199D1*
X847953D1*
X843145Y989823D1*
X838391Y985014D1*
X835960Y980261D1*
X833583Y973076D1*
Y961083D1*
X835960Y953953D1*
X838391Y949144D1*
X843145Y944391D1*
X847953Y941959D1*
X857515D1*
X862268Y944391D1*
X867076Y949144D1*
X869453Y953953D1*
X887324Y980206D2*
Y982583D1*
X889701Y987391D1*
X892077Y989768D1*
X896886Y992144D1*
X906447D1*
X911200Y989768D1*
X913577Y987391D1*
X916009Y982583D1*
Y977829D1*
X913577Y973021D1*
X908824Y965891D1*
X884892Y941959D1*
X918386D1*
X1221421Y1507427D2*
X1219045Y1512180D1*
X1214236Y1516988D1*
X1209483Y1519365D1*
X1199922D1*
X1195113Y1516988D1*
X1190360Y1512180D1*
X1187928Y1507427D1*
X1185552Y1500242D1*
Y1488248D1*
X1187928Y1481118D1*
X1190360Y1476310D1*
X1195113Y1471557D1*
X1199922Y1469125D1*
X1209483D1*
X1214236Y1471557D1*
X1219045Y1476310D1*
X1221421Y1481118D1*
X1241669Y1519310D2*
X1267922D1*
X1253607Y1500186D1*
X1260792D1*
X1265546Y1497810D1*
X1267922Y1495433D1*
X1270354Y1488248D1*
Y1483495D1*
X1267922Y1476310D1*
X1263169Y1471501D1*
X1255984Y1469125D1*
X1248799D1*
X1241669Y1471501D1*
X1239293Y1473933D1*
X1236861Y1478686D1*
X1548186Y849553D2*
X1545809Y854306D1*
X1541001Y859114D1*
X1536248Y861491D1*
X1526686D1*
X1521878Y859114D1*
X1517124Y854306D1*
X1514693Y849553D1*
X1512316Y842368D1*
Y830374D1*
X1514693Y823244D1*
X1517124Y818436D1*
X1521878Y813683D1*
X1526686Y811251D1*
X1536248D1*
X1541001Y813683D1*
X1545809Y818436D1*
X1548186Y823244D1*
X1587557Y811251D2*
Y861436D1*
X1563625Y827997D1*
X1599495D1*
X971074Y1473183D2*
X966321Y1470861D1*
X961512Y1466053D1*
X959135Y1461244D1*
X956704Y1454059D1*
Y1442121D1*
X959135Y1434936D1*
X961512Y1430183D1*
X966321Y1425374D1*
X971074Y1422998D1*
X980635D1*
X985444Y1425374D1*
X990197Y1430183D1*
X992574Y1434936D1*
X995005Y1442121D1*
Y1454059D1*
X992574Y1461244D1*
X990197Y1466053D1*
X985444Y1470861D1*
X980635Y1473183D1*
X971074D1*
X978259Y1432559D2*
X992574Y1418189D1*
X1010445Y1463566D2*
X1015253Y1465998D1*
X1022438Y1473127D1*
Y1422943D1*
X1336107Y1108649D2*
X1331354Y1106328D1*
X1326546Y1101519D1*
X1324169Y1096711D1*
X1321737Y1089526D1*
Y1077587D1*
X1324169Y1070402D1*
X1326546Y1065649D1*
X1331354Y1060841D1*
X1336107Y1058464D1*
X1345669D1*
X1350477Y1060841D1*
X1355230Y1065649D1*
X1357607Y1070402D1*
X1360039Y1077587D1*
Y1089526D1*
X1357607Y1096711D1*
X1355230Y1101519D1*
X1350477Y1106328D1*
X1345669Y1108649D1*
X1336107D1*
X1343292Y1068026D2*
X1357607Y1053656D1*
X1377910Y1096655D2*
Y1099032D1*
X1380287Y1103840D1*
X1382663Y1106217D1*
X1387472Y1108594D1*
X1397033D1*
X1401786Y1106217D1*
X1404163Y1103840D1*
X1406595Y1099032D1*
Y1094279D1*
X1404163Y1089470D1*
X1399410Y1082341D1*
X1375478Y1058409D1*
X1408972D1*
X1210088Y1585303D2*
X1231588D1*
X1238773Y1587735D1*
X1241205Y1590111D1*
X1243581Y1594864D1*
Y1599673D1*
X1241205Y1604426D1*
X1238773Y1606858D1*
X1231588Y1609235D1*
X1210088D1*
Y1558995D1*
X1226835Y1585303D2*
X1243581Y1558995D1*
X1259021Y1599618D2*
X1263829Y1602050D1*
X1271014Y1609179D1*
Y1558995D1*
X780441Y1592389D2*
X801940D1*
X809125Y1594821D1*
X811557Y1597198D1*
X813934Y1601951D1*
Y1606760D1*
X811557Y1611513D1*
X809125Y1613945D1*
X801940Y1616321D1*
X780441D1*
Y1566081D1*
X797187Y1592389D2*
X813934Y1566081D1*
X831805Y1604328D2*
Y1606704D1*
X834182Y1611513D1*
X836558Y1613889D1*
X841367Y1616266D1*
X850928D1*
X855681Y1613889D1*
X858058Y1611513D1*
X860490Y1606704D1*
Y1601951D1*
X858058Y1597143D1*
X853305Y1590013D1*
X829373Y1566081D1*
X862867D1*
X1428083Y1293433D2*
Y1314933D1*
X1425651Y1322118D1*
X1423275Y1324550D1*
X1418521Y1326926D1*
X1413713D1*
X1408960Y1324550D1*
X1406528Y1322118D1*
X1404151Y1314933D1*
Y1293433D1*
X1454391D1*
X1428083Y1310179D2*
X1454391Y1326926D1*
X1404207Y1347174D2*
Y1373427D1*
X1423330Y1359112D1*
Y1366297D1*
X1425706Y1371050D1*
X1428083Y1373427D1*
X1435268Y1375859D1*
X1440021D1*
X1447206Y1373427D1*
X1452015Y1368674D1*
X1454391Y1361489D1*
Y1354304D1*
X1452015Y1347174D1*
X1449583Y1344797D1*
X1444830Y1342365D1*
X636733Y1057744D2*
X658232D1*
X665417Y1060176D1*
X667849Y1062552D1*
X670226Y1067305D1*
Y1072114D1*
X667849Y1076867D1*
X665417Y1079299D1*
X658232Y1081675D1*
X636733D1*
Y1031435D1*
X653479Y1057744D2*
X670226Y1031435D1*
X709597D2*
Y1081620D1*
X685665Y1048182D1*
X721535D1*
X1633196Y1273886D2*
X1654696D1*
X1661881Y1276317D1*
X1664313Y1278694D1*
X1666690Y1283447D1*
Y1288256D1*
X1664313Y1293009D1*
X1661881Y1295441D1*
X1654696Y1297817D1*
X1633196D1*
Y1247577D1*
X1649943Y1273886D2*
X1666690Y1247577D1*
X1710814Y1297762D2*
X1686938D1*
X1684561Y1276262D1*
X1686938Y1278639D1*
X1694123Y1281071D1*
X1701252D1*
X1708437Y1278639D1*
X1713246Y1273886D1*
X1715622Y1266700D1*
Y1261947D1*
X1713246Y1254762D1*
X1708437Y1249954D1*
X1701252Y1247577D1*
X1694123D1*
X1686938Y1249954D1*
X1684561Y1252386D1*
X1682129Y1257139D1*
X1150130Y900161D2*
Y921660D1*
X1147698Y928845D1*
X1145322Y931277D1*
X1140569Y933654D1*
X1135760D1*
X1131007Y931277D1*
X1128575Y928845D1*
X1126199Y921660D1*
Y900161D1*
X1176439D1*
X1150130Y916907D2*
X1176439Y933654D1*
X1133384Y977778D2*
X1128630Y975401D1*
X1126254Y968216D1*
Y963463D1*
X1128630Y956278D1*
X1135815Y951470D1*
X1147754Y949093D1*
X1159692D1*
X1169254Y951470D1*
X1174062Y956278D1*
X1176439Y963463D1*
Y965840D1*
X1174062Y972969D1*
X1169254Y977778D1*
X1162068Y980155D1*
X1159692D1*
X1152507Y977778D1*
X1147754Y972970D1*
X1145377Y965840D1*
Y963463D1*
X1147754Y956278D1*
X1152507Y951470D1*
X1159692Y949093D1*
X1117448Y711287D2*
X1138948D1*
X1146133Y713719D1*
X1148565Y716096D1*
X1150942Y720849D1*
Y725657D1*
X1148565Y730410D1*
X1146133Y732842D1*
X1138948Y735219D1*
X1117448D1*
Y684979D1*
X1134195Y711287D2*
X1150942Y684979D1*
X1175943D2*
X1199874Y735164D1*
X1166381D1*
X1696981Y978500D2*
Y1000000D1*
X1694549Y1007185D1*
X1692172Y1009617D1*
X1687419Y1011993D1*
X1682611D1*
X1677857Y1009617D1*
X1675426Y1007185D1*
X1673049Y1000000D1*
Y978500D1*
X1723289D1*
X1696981Y995246D2*
X1723289Y1011993D1*
X1673104Y1039371D2*
X1675481Y1032241D1*
X1680234Y1029809D1*
X1685042D1*
X1689796Y1032241D1*
X1692228Y1036994D1*
X1694604Y1046556D1*
X1696981Y1053741D1*
X1701789Y1058494D1*
X1706542Y1060870D1*
X1713727D1*
X1718481Y1058494D1*
X1720912Y1056117D1*
X1723289Y1048932D1*
Y1039371D1*
X1720912Y1032241D1*
X1718481Y1029809D1*
X1713727Y1027432D1*
X1706542D1*
X1701789Y1029809D1*
X1696981Y1034617D1*
X1694604Y1041747D1*
X1692227Y1051309D1*
X1689796Y1056117D1*
X1685042Y1058494D1*
X1680234D1*
X1675481Y1056117D1*
X1673104Y1048932D1*
Y1039371D1*
X1117849Y584909D2*
X1139349D1*
X1146534Y587341D1*
X1148966Y589718D1*
X1151343Y594471D1*
Y599279D1*
X1148966Y604032D1*
X1146534Y606464D1*
X1139349Y608841D1*
X1117849D1*
Y558601D1*
X1134596Y584909D2*
X1151343Y558601D1*
X1197899Y592094D2*
X1195467Y584909D1*
X1190714Y580101D1*
X1183529Y577724D1*
X1181152D1*
X1173967Y580101D1*
X1169214Y584909D1*
X1166782Y592094D1*
Y594471D1*
X1169214Y601656D1*
X1173967Y606409D1*
X1181152Y608786D1*
X1183529D1*
X1190714Y606409D1*
X1195467Y601656D1*
X1197899Y592094D1*
Y580101D1*
X1195467Y568162D1*
X1190714Y560977D1*
X1183529Y558601D1*
X1178775D1*
X1171590Y560977D1*
X1169214Y565786D1*
X538828Y1333459D2*
Y1297589D1*
X541205Y1290404D1*
X546013Y1285651D1*
X553198Y1283219D1*
X557952D1*
X565137Y1285651D1*
X569945Y1290404D1*
X572322Y1297589D1*
Y1333459D1*
X587761Y1323842D2*
X592569Y1326274D1*
X599754Y1333404D1*
Y1283219D1*
X1914693Y1004325D2*
Y968456D1*
X1917069Y961270D1*
X1921878Y956517D1*
X1929063Y954085D1*
X1933816D1*
X1941001Y956517D1*
X1945809Y961270D1*
X1948186Y968456D1*
Y1004325D1*
X1966057Y992332D2*
Y994709D1*
X1968434Y999517D1*
X1970810Y1001894D1*
X1975619Y1004270D1*
X1985180D1*
X1989933Y1001894D1*
X1992310Y999517D1*
X1994742Y994709D1*
Y989955D1*
X1992310Y985147D1*
X1987557Y978017D1*
X1963625Y954085D1*
X1997118D1*
X1911937Y1409050D2*
Y1373180D1*
X1914313Y1365995D1*
X1919122Y1361242D1*
X1926307Y1358810D1*
X1931060D1*
X1938245Y1361242D1*
X1943053Y1365995D1*
X1945430Y1373180D1*
Y1409050D1*
X1965678Y1408995D2*
X1991931D1*
X1977616Y1389871D1*
X1984801D1*
X1989554Y1387495D1*
X1991931Y1385118D1*
X1994363Y1377933D1*
Y1373180D1*
X1991931Y1365995D1*
X1987178Y1361186D1*
X1979992Y1358810D1*
X1972807D1*
X1965678Y1361186D1*
X1963301Y1363618D1*
X1960869Y1368371D1*
M02*
